<?xml version="1.0" standalone="no"?>
<!DOCTYPE svg PUBLIC "-//W3C//DTD SVG 20010904//EN"
 "http://www.w3.org/TR/2001/REC-SVG-20010904/DTD/svg10.dtd">
<svg version="1.0" xmlns="http://www.w3.org/2000/svg"
 width="1266.000000pt" height="1280.000000pt" viewBox="0 0 1266.000000 1280.000000"
 preserveAspectRatio="xMidYMid meet">
<metadata>
Created by potrace 1.15, written by Peter Selinger 2001-2017
</metadata>
<g transform="translate(0.000000,1280.000000) scale(0.100000,-0.100000)"
fill="#000000" stroke="none">
<path d="M0 12641 c0 -142 6 -200 55 -528 30 -202 60 -398 66 -436 l11 -67
421 0 422 1 138 -413 138 -413 429 -1875 c437 -1911 851 -3719 853 -3732 1 -5
-33 -23 -75 -42 -366 -160 -639 -507 -719 -911 -21 -103 -18 -359 4 -465 103
-483 464 -859 933 -968 110 -26 156 -31 459 -46 198 -10 242 -10 251 1 9 11
779 13 4423 13 l4412 0 -3 440 -3 440 -4660 2 -4660 3 -57 23 c-80 32 -150 99
-190 180 -30 59 -33 76 -33 152 0 72 4 94 29 147 37 80 107 148 162 157 21 3
264 33 539 66 275 33 1852 222 3505 420 1653 198 3518 422 4145 497 627 75
1141 137 1142 137 2 2 393 5849 393 5878 0 17 -143 18 -2828 20 l-2829 3 169
285 c92 157 166 289 165 294 -2 5 -72 49 -156 99 -122 72 -155 87 -162 76 -4
-8 -107 -180 -227 -384 l-220 -370 -1888 -3 -1889 -2 -173 722 c-96 398 -176
731 -178 741 -5 16 -69 17 -1160 17 l-1154 0 0 -159z m2016 -1156 c95 -396
173 -728 174 -737 0 -16 23 -18 298 -20 l297 -3 3 -297 2 -298 -389 0 c-362 0
-390 1 -395 18 -3 9 -44 186 -91 392 -84 369 -89 385 -297 1010 -116 349 -213
641 -216 648 -3 10 42 12 218 10 l222 -3 174 -720z m1954 -1055 l0 -300 -442
2 -443 3 -3 285 c-1 157 0 290 3 297 3 10 99 13 445 13 l440 0 0 -300z m1190
0 l0 -300 -445 0 -445 0 0 300 0 300 445 0 445 0 0 -300z m913 268 c-11 -18
-91 -153 -177 -300 l-158 -268 -139 0 -139 0 0 300 0 300 316 0 316 0 -19 -32z
m1457 -268 l0 -300 -445 0 -445 0 0 300 0 300 445 0 445 0 0 -300z m1188 -2
l2 -298 -445 0 -445 0 0 300 0 300 443 -2 442 -3 3 -297z m1182 2 l0 -300
-445 0 -445 0 0 293 c0 162 3 297 7 300 3 4 204 7 445 7 l438 0 0 -300z m1190
0 l0 -300 -445 0 -445 0 0 300 0 300 445 0 445 0 0 -300z m805 238 c-6 -71
-35 -501 -35 -523 0 -13 -34 -15 -235 -15 l-235 0 0 300 0 300 255 0 256 0 -6
-62z m-5553 -390 c-2 -79 -5 -144 -7 -146 -1 -2 -39 -2 -83 0 l-81 3 82 142
c45 78 84 142 87 143 3 0 4 -64 2 -142z m-3552 -883 l0 -445 -254 0 c-234 0
-255 1 -260 18 -10 32 -196 851 -196 861 0 8 112 11 355 11 l355 0 0 -445z
m1180 0 l0 -445 -445 0 -445 0 0 438 c0 241 3 442 7 445 3 4 204 7 445 7 l438
0 0 -445z m1189 98 l0 -348 -58 -95 -57 -95 -387 -3 -387 -2 0 445 0 445 445
0 445 0 -1 -347z m401 341 c0 -6 -100 -174 -103 -174 -1 0 -1 40 1 90 l3 90
50 0 c27 0 49 -3 49 -6z m780 -439 l0 -445 -435 0 -435 0 44 73 c24 39 132
223 241 407 108 184 208 352 221 373 l24 37 170 0 170 0 0 -445z m1190 0 l0
-445 -445 0 -445 0 0 445 0 445 445 0 445 0 0 -445z m1190 0 l0 -445 -445 0
-445 0 0 445 0 445 445 0 445 0 0 -445z m1180 0 l0 -445 -445 0 -445 0 0 445
0 445 445 0 445 0 0 -445z m1190 0 l0 -445 -445 0 -445 0 0 445 0 445 445 0
445 0 0 -445z m745 378 c-3 -38 -14 -205 -25 -373 -11 -168 -22 -338 -26 -377
l-6 -73 -194 0 -194 0 0 445 0 445 226 0 225 0 -6 -67z m-9045 -1568 l0 -445
-120 0 c-66 0 -120 2 -120 4 0 1 -45 200 -100 440 -55 240 -100 439 -100 442
0 2 99 4 220 4 l220 0 0 -445z m1180 0 l0 -445 -442 2 -443 3 -3 443 -2 442
445 0 445 0 0 -445z m890 441 c0 -2 -117 -201 -259 -442 l-259 -439 -36 -3
-36 -3 0 445 0 446 295 0 c162 0 295 -2 295 -4z m1480 -441 l0 -445 -440 0
-440 0 0 445 0 445 440 0 440 0 0 -445z m1190 0 l0 -445 -445 0 -445 0 0 445
0 445 445 0 445 0 0 -445z m1188 3 l-3 -443 -442 -3 -443 -2 0 445 0 445 445
0 445 0 -2 -442z m1182 -3 l0 -445 -442 2 -443 3 -3 443 -2 442 445 0 445 0 0
-445z m1190 0 l0 -445 -445 0 -445 0 0 445 0 445 445 0 445 0 0 -445z m666
373 c-4 -40 -15 -212 -26 -383 -11 -170 -23 -338 -26 -372 l-6 -63 -154 0
-154 0 -2 445 -3 445 188 0 189 0 -6 -72z m-6599 -815 c-2 -2 -90 -2 -194 -1
l-191 3 192 324 191 325 3 -324 c1 -178 1 -325 -1 -327z m-2368 -660 c0 -203
-2 -363 -4 -358 -5 12 -165 712 -165 720 0 3 38 5 85 5 l85 0 -1 -367z m1181
200 l0 -168 -163 -277 -162 -277 -282 -1 -283 0 0 445 0 445 445 0 445 0 0
-167z m1190 -278 l0 -445 -445 0 -445 0 0 167 0 166 142 241 c78 133 152 258
165 279 l23 37 280 0 280 0 0 -445z m1180 0 l0 -445 -440 0 -440 0 0 445 0
445 440 0 440 0 0 -445z m1190 0 l0 -445 -445 0 -445 0 0 445 0 445 445 0 445
0 0 -445z m1190 0 l0 -445 -445 0 -445 0 0 445 0 445 445 0 445 0 0 -445z
m1180 0 l0 -445 -445 0 -445 0 0 445 0 445 445 0 445 0 0 -445z m1190 0 l0
-445 -445 0 -445 0 0 445 0 445 445 0 445 0 0 -445z m590 433 c0 -30 -50 -778
-56 -825 l-5 -53 -117 0 -117 0 3 445 2 445 145 0 c109 0 145 -3 145 -12z
m-8220 -1183 c0 -6 -360 -618 -371 -629 -5 -6 -9 126 -9 312 l0 322 190 0
c105 0 190 -2 190 -5z m510 -440 l0 -445 -296 0 c-278 0 -296 1 -289 18 3 9
120 209 258 444 l252 428 38 0 37 0 0 -445z m1190 0 l0 -445 -445 0 -445 0 0
445 0 445 445 0 445 0 0 -445z m1180 0 l0 -445 -440 0 -440 0 0 445 0 445 440
0 440 0 0 -445z m1190 40 l0 -404 -32 -6 c-153 -25 -637 -75 -737 -75 l-121 0
0 445 0 445 445 0 445 0 0 -405z m1190 70 c0 -261 -3 -335 -12 -335 -7 -1
-208 -25 -445 -53 l-433 -53 0 388 0 388 445 0 445 0 0 -335z m1180 70 c0
-177 -3 -265 -10 -265 -6 0 -198 -22 -426 -50 -228 -27 -424 -50 -435 -50 -18
0 -19 10 -19 315 l0 315 445 0 445 0 0 -265z m1190 75 c0 -144 -3 -192 -12
-195 -12 -3 -852 -105 -870 -105 -5 0 -8 110 -8 245 l0 245 445 0 445 0 0
-190z m506 98 c-3 -51 -9 -125 -12 -164 l-6 -72 -72 -6 c-39 -4 -81 -10 -93
-13 -22 -5 -22 -5 -25 171 l-3 176 109 0 109 0 -7 -92z m-7626 -1118 c0 -16
-3 -30 -6 -30 -3 0 -174 -20 -380 -45 -205 -25 -377 -45 -382 -45 -5 0 -14 23
-20 51 -10 44 -10 56 3 75 l15 24 385 0 385 0 0 -30z m395 20 c-45 -11 -95
-11 -95 0 0 6 27 9 63 9 49 -1 56 -3 32 -9z"/>
<path d="M3904 2110 c-458 -99 -800 -480 -843 -941 -47 -495 252 -956 724
-1113 475 -159 1007 42 1257 476 80 138 122 266 139 428 33 300 -73 612 -281
834 -134 143 -318 253 -506 302 -138 37 -357 43 -490 14z m386 -540 c165 -55
294 -190 344 -359 20 -70 21 -209 1 -286 -43 -165 -187 -313 -354 -366 -91
-29 -231 -29 -321 0 -264 84 -423 370 -355 636 49 192 208 347 398 391 83 18
205 12 287 -16z"/>
<path d="M4035 1317 c-109 -42 -174 -130 -176 -236 -3 -127 65 -228 181 -266
172 -57 344 71 343 255 -1 147 -114 261 -257 259 -34 0 -75 -6 -91 -12z"/>
<path d="M10345 2118 c-501 -93 -862 -505 -882 -1008 -13 -316 102 -600 330
-816 311 -295 768 -374 1165 -201 287 124 518 396 598 703 31 119 42 310 25
424 -70 453 -413 809 -864 895 -87 17 -291 18 -372 3z m281 -529 c181 -33 343
-175 406 -356 33 -98 32 -240 -4 -340 -133 -374 -605 -479 -884 -196 -74 75
-131 191 -146 299 -27 190 55 383 213 499 120 88 265 121 415 94z"/>
<path d="M10420 1309 c-91 -41 -148 -121 -157 -219 -22 -244 274 -384 446
-212 169 169 54 452 -184 452 -39 0 -76 -8 -105 -21z"/>
</g>
</svg>
